<svg width="24" height="24" viewBox="0 0 24 24" fill="none" xmlns="http://www.w3.org/2000/svg">
<path d="M14.615 7.74237L8.98696 13.3704C8.72288 13.6344 8.56185 13.98 8.5393 14.3309C8.51675 14.6818 8.63452 15.0094 8.86671 15.2416C9.0989 15.4737 9.42648 15.5915 9.7774 15.569C10.1283 15.5464 10.4738 15.3854 10.7379 15.1213L16.3659 9.49331C16.8941 8.96514 17.2161 8.27414 17.2612 7.57231C17.3063 6.87048 17.0708 6.21531 16.6064 5.75093C16.142 5.28656 15.4869 5.05101 14.785 5.09612C14.0832 5.14122 13.3922 5.46328 12.864 5.99144L7.23603 11.6194C6.44379 12.4117 5.9607 13.4482 5.89304 14.5009C5.82538 15.5537 6.1787 16.5364 6.87526 17.233C7.57183 17.9296 8.55458 18.2829 9.60733 18.2152C10.6601 18.1476 11.6966 17.6645 12.4888 16.8722L18.1168 11.2442" stroke="#6A6D73" stroke-linecap="round" stroke-linejoin="round"/>
</svg>
