<svg xmlns="http://www.w3.org/2000/svg" width="125" height="30" viewBox="0 0 125 30" fill="none">
  <g clip-path="url(#clip0_911_4987)">
    <path fill-rule="evenodd" clip-rule="evenodd" d="M40.0787 2.21248C41.4374 0.954983 43.1687 0.326233 45.2699 0.326233C48.0787 0.326233 50.1349 1.16748 51.4337 2.84873C52.1512 3.79498 52.5362 4.74373 52.5899 5.69373H49.0612C48.8362 4.96248 48.5487 4.41248 48.1962 4.03998C47.5687 3.37748 46.6362 3.04623 45.4037 3.04623C44.1462 3.04623 43.1549 3.51498 42.4287 4.44623C41.7037 5.38123 41.3412 6.70373 41.3412 8.41373C41.3412 10.1237 41.7237 11.405 42.4899 12.2537C43.2549 13.1075 44.2274 13.5337 45.4087 13.5337C46.6187 13.5337 47.5412 13.1675 48.1762 12.4375C48.5262 12.0425 48.8174 11.4525 49.0487 10.6675H52.5562C52.2524 12.33 51.4812 13.68 50.2374 14.72C48.9937 15.7625 47.4024 16.2825 45.4612 16.2825C43.0587 16.2825 41.1699 15.58 39.7962 14.1725C38.4212 12.76 37.7324 10.8237 37.7324 8.36123C37.7324 5.70248 38.5149 3.64998 40.0787 2.21248ZM55.1449 15.8612V0.616233H58.6499V6.43123H65.2137V0.616233H68.7199V15.8612H65.2137V9.05748H58.6499V15.8612H55.1449ZM71.8712 0.616233H75.4549V9.97873C75.4549 11.0262 75.5937 11.7912 75.8649 12.2737C76.2912 13.1275 77.2212 13.5537 78.6499 13.5537C80.0737 13.5537 80.9999 13.1275 81.4249 12.2737C81.6987 11.7912 81.8349 11.0262 81.8349 9.97873V0.616233H85.4212V9.98748C85.4212 11.6062 85.1424 12.87 84.5874 13.7712C83.5499 15.425 81.5712 16.2525 78.6499 16.2525C75.7312 16.2525 73.7499 15.425 72.7049 13.7712C72.1487 12.87 71.8712 11.6062 71.8712 9.98748V0.616233ZM88.5137 0.616233H92.2137L98.9162 11.245V0.616233H102.204V15.8612H98.6762L91.8037 5.04373V15.8612H88.5137V0.616233Z" fill="#626062"/>
    <mask id="mask0_911_4987" style="mask-type:luminance" maskUnits="userSpaceOnUse" x="0" y="0" width="125" height="30">
      <path d="M0 30H125V0H0V30Z" fill="#626062"/>
    </mask>
    <g mask="url(#mask0_911_4987)">
      <path fill-rule="evenodd" clip-rule="evenodd" d="M105.732 15.8613H109.237V0.617522H105.732V15.8613ZM113.04 0.616272H116.569V13.1188H125V15.8613H113.04V0.616272Z" fill="#626062"/>
    </g>
    <mask id="mask1_911_4987" style="mask-type:luminance" maskUnits="userSpaceOnUse" x="0" y="0" width="125" height="30">
      <path d="M0 30H125V0H0V30Z" fill="#F6AC2E"/>
    </mask>
    <g mask="url(#mask1_911_4987)">
      <path fill-rule="evenodd" clip-rule="evenodd" d="M17.6133 8.5925V1.53L25.922 11.5538L17.6133 8.5925ZM17.6133 14.515V9.55L25.072 14.0363L17.6133 14.515ZM17.6133 20.3387V15.85L25.1683 16.4225L17.6133 20.3387ZM17.6133 28.4513V21.1012L26.2995 18.7137L17.6133 28.4513ZM27.6208 25.4912V29.9813H24.6958L27.6208 25.4912ZM27.6208 20.53L24.2208 29.9813H17.6133V28.5513L27.6208 20.53ZM25.1683 0H27.6208V4.3925L25.1683 0ZM17.6133 0H24.7883L27.4333 9.74L17.6133 0.955V0Z" fill="#F6AC2E"/>
    </g>
    <mask id="mask2_911_4987" style="mask-type:luminance" maskUnits="userSpaceOnUse" x="0" y="0" width="125" height="30">
      <path d="M0 30H125V0H0V30Z" fill="#224C93"/>
    </mask>
    <g mask="url(#mask2_911_4987)">
      <path fill-rule="evenodd" clip-rule="evenodd" d="M14.7888 30C6.63375 30 0 23.2925 0 15.0438C0 6.79877 6.63375 0.0875244 14.7875 0.0875244V8.50752C11.225 8.50752 8.325 11.4388 8.325 15.0425C8.325 18.6463 11.225 21.58 14.7875 21.58V30H14.7888Z" fill="#224C93"/>
    </g>
    <mask id="mask3_911_4987" style="mask-type:luminance" maskUnits="userSpaceOnUse" x="0" y="0" width="125" height="30">
      <path d="M0 30H125V0H0V30Z" fill="#626062"/>
    </mask>
    <g mask="url(#mask3_911_4987)">
      <path fill-rule="evenodd" clip-rule="evenodd" d="M87.8204 24.4575H89.1629C90.0341 24.4575 90.5816 24.42 90.7966 24.345C91.0116 24.2713 91.1816 24.1425 91.3029 23.9613C91.4279 23.7813 91.4904 23.5513 91.4904 23.2788C91.4904 22.9713 91.4066 22.7263 91.2441 22.535C91.0854 22.3475 90.8604 22.2275 90.5629 22.1788C90.4129 22.16 89.9729 22.1488 89.2379 22.1488H87.8204V24.4575ZM86.0054 29.7075V20.61H89.8279C90.7866 20.61 91.4841 20.6913 91.9216 20.855C92.3566 21.02 92.7041 21.31 92.9691 21.73C93.2279 22.1475 93.3566 22.6213 93.3566 23.16C93.3566 23.8413 93.1604 24.4063 92.7629 24.8513C92.3679 25.2963 91.7754 25.575 90.9841 25.6913C91.3766 25.9225 91.6991 26.1788 91.9591 26.4538C92.2141 26.7325 92.5591 27.225 92.9941 27.9325L94.0879 29.7075H91.9191L90.6041 27.7275C90.1404 27.0175 89.8216 26.5725 89.6491 26.3863C89.4741 26.2063 89.2941 26.08 89.1016 26.0088C88.9104 25.9438 88.6041 25.9088 88.1879 25.9088H87.8204V29.7063H86.0054V29.7075ZM46.8854 22.2438H41.9129V24.1825H46.4754V25.7725H41.9129V28.12H47.1154V29.7613H39.9941V20.6275H46.8854V22.2438ZM54.9829 20.6288H57.0404L60.7704 26.9975V20.6288H62.6029V29.7613H60.6391L56.8166 23.2788V29.7613H54.9829V20.6288ZM77.7641 22.2438H72.7904V24.1825H77.3554V25.7725H72.7904V28.12H77.9941V29.7613H70.8729V20.6275H77.7641V22.2438ZM107.028 23.4813C106.879 22.8538 106.515 22.4188 105.938 22.1688C105.613 22.0313 105.257 21.9638 104.859 21.9638C104.103 21.9638 103.48 22.2425 102.993 22.7963C102.508 23.3488 102.265 24.1863 102.265 25.2975C102.265 26.4225 102.527 27.215 103.055 27.6825C103.583 28.1488 104.18 28.3813 104.855 28.3813C105.512 28.3813 106.052 28.1975 106.473 27.8313C106.893 27.4613 107.154 26.9813 107.249 26.3838H105.079V24.8613H108.992V29.7613H107.692L107.494 28.6213C107.113 29.055 106.775 29.3588 106.473 29.5375C105.952 29.8438 105.318 30 104.56 30C103.317 30 102.293 29.58 101.498 28.7413C100.673 27.8988 100.257 26.7475 100.257 25.285C100.257 23.8063 100.677 22.6188 101.515 21.7288C102.348 20.835 103.458 20.39 104.835 20.39C106.028 20.39 106.985 20.6863 107.712 21.2775C108.437 21.8638 108.852 22.6013 108.958 23.4813H107.028ZM120.952 20.6288H123.179L120.035 26.3375V29.7613H118.072V26.3375L114.819 20.6288H117.135L119.085 24.6063L120.952 20.6288Z" fill="#626062"/>
    </g>
  </g>
  <defs>
    <clipPath id="clip0_911_4987">
      <rect width="125" height="30" fill="white"/>
    </clipPath>
  </defs>
</svg>