<svg width="168" height="182" viewBox="0 0 168 182" fill="none" xmlns="http://www.w3.org/2000/svg">
<g id="symbol">
<path fill-rule="evenodd" clip-rule="evenodd" d="M107.129 52.1292V9.28225L157.667 70.0946L107.129 52.1292ZM107.129 88.06V57.9382L152.497 85.1555L107.129 88.06ZM107.129 123.392V96.1592L153.083 99.6325L107.129 123.392ZM107.129 172.609V128.018L159.963 113.533L107.129 172.609ZM168 154.651V181.891H150.209L168 154.651ZM168 124.552L147.319 181.891H107.129V173.216L168 124.552ZM153.083 0H168V26.6485L153.083 0ZM107.129 0H150.771L166.86 59.0909L107.129 5.79382V0Z" fill="#F6AC2E"/>
<path fill-rule="evenodd" clip-rule="evenodd" d="M89.9531 182C40.35 182 0 141.307 0 91.263C0 41.242 40.35 0.526036 89.9455 0.526036V51.6087C68.2765 51.6087 50.6371 69.3921 50.6371 91.2554C50.6371 113.119 68.2765 130.917 89.9455 130.917V182H89.9531Z" fill="#224C93"/>
</g>
</svg>
