<svg width="135" height="44" viewBox="0 0 135 44" fill="none" xmlns="http://www.w3.org/2000/svg">
<g id="hanssem_&#237;&#149;&#156;&#236;&#131;&#152; 2" style="mix-blend-mode:luminosity" opacity="0.6" clip-path="url(#clip0_681_2181)">
<path id="Vector" d="M0 0H7.93291V23.7888H0V0Z" fill="#D7182A"/>
<path id="Vector_2" d="M11.7891 8.00586H27.6549V15.9338H11.7891V8.00586Z" fill="#FCAF17"/>
<path id="Vector_3" d="M31.7217 0H39.6562V23.7888H31.7217V0Z" fill="#0057A0"/>
<path id="Vector_4" d="M47.5842 0H55.5105V23.7888H47.5825L47.5842 0ZM63.4434 0H71.3713V23.7888H63.4434V0ZM79.3042 0H87.2321V23.7888H79.3042V0Z" fill="#D7182A"/>
<path id="Vector_5" d="M95.1602 0H103.093V23.7888H95.1602V0Z" fill="#0057A0"/>
<path id="Vector_6" d="M103.528 5.86122L109.137 0.260254L120.352 11.4688L114.751 17.0698L103.528 5.86122Z" fill="#FCAF17"/>
<path id="Vector_7" d="M126.882 0H134.81V23.7888H126.88L126.882 0Z" fill="#D7182A"/>
<path id="Vector_8" d="M35.1533 40.4109C35.1848 41.7278 36.1932 42.8391 37.5167 42.8391C38.8585 42.8391 39.9631 41.8489 39.9631 40.459C39.9631 39.8072 39.643 39.1537 39.1487 38.7507C38.6047 38.2896 37.9994 38.1271 37.3243 37.9513C36.5929 37.7523 35.8366 37.5582 35.2511 37.0324C34.5927 36.4652 34.2593 35.6492 34.2593 34.7851C34.2593 32.8396 35.7586 31.5343 37.6129 31.5343C38.0418 31.5305 38.467 31.6125 38.8638 31.7754C39.2605 31.9383 39.6206 32.1789 39.923 32.483C40.2254 32.7871 40.464 33.1486 40.6247 33.5462C40.7853 33.9438 40.8649 34.3695 40.8587 34.7984H39.6247C39.5468 33.5777 38.6827 32.6953 37.4686 32.6953C36.3209 32.6953 35.4452 33.6556 35.4452 34.7984C35.4452 36.2479 36.6227 36.5929 37.7705 36.918C38.623 37.1668 39.3594 37.3111 40.0427 37.9513C40.7426 38.5683 41.1473 39.517 41.1473 40.4773C41.1473 42.4709 39.4688 44.0001 37.5532 44.0001C35.5347 44.0001 33.8728 42.514 33.8911 40.4109H35.1533ZM65.364 41.975L69.4557 31.7217H71.3713V43.9155H70.1572V33.3106L65.9213 43.9155H64.8034L60.5741 33.3239V43.9155H59.3418V31.7217H61.2159L65.364 41.975ZM51.0821 31.7217H57.6185V32.828H52.3028V37.0407H57.5472V38.1818H52.2945V42.8042H57.6185V43.9089H51.0804L51.0821 31.7217ZM22.4171 43.9089H23.6312V33.2045L30.9969 43.9105H32.2176V31.7234H30.9969V41.7295L24.0475 31.7234H22.4171V43.9089ZM7.56471 31.7217H8.86336V43.9089H7.56471V38.1934H1.2207V43.9089H0V31.7217H1.2207V37.0872H7.56305L7.56471 31.7217ZM43.2553 40.4109C43.2869 41.7278 44.2953 42.8391 45.6188 42.8391C46.9606 42.8391 48.0668 41.8489 48.0668 40.459C48.0668 39.8072 47.7467 39.1537 47.2508 38.7507C46.7068 38.2896 46.1031 38.1271 45.4264 37.9513C44.695 37.7523 43.9387 37.5582 43.3532 37.0324C42.6947 36.4652 42.363 35.6492 42.363 34.7851C42.363 32.8396 43.8674 31.5343 45.7166 31.5343C46.1454 31.5307 46.5705 31.6129 46.967 31.7759C47.3635 31.9389 47.7234 32.1795 48.0257 32.4836C48.3279 32.7877 48.5663 33.1491 48.7269 33.5466C48.8875 33.9441 48.967 34.3697 48.9608 34.7984H47.7335C47.6505 33.5777 46.7848 32.6953 45.5707 32.6953C44.423 32.6953 43.5472 33.6556 43.5472 34.7984C43.5472 36.2479 44.7248 36.5929 45.8792 36.918C46.7251 37.1668 47.4615 37.3111 48.1448 37.9513C48.8513 38.5683 49.251 39.517 49.251 40.4773C49.251 42.4709 47.5709 44.0001 45.6553 44.0001C43.6368 44.0001 41.9749 42.514 41.9932 40.4109H43.2553ZM15.6436 33.1365L13.2884 38.6711H17.9573L15.6436 33.1365ZM21.5414 43.9089H20.2229L18.4167 39.7342H12.8273L11.0212 43.9089H9.70426L14.9619 31.7217H16.3087L21.5414 43.9089Z" fill="#231F20"/>
</g>
<defs>
<clipPath id="clip0_681_2181">
<rect width="134.809" height="44" fill="white"/>
</clipPath>
</defs>
</svg>
