<svg width="136" height="44" viewBox="0 0 136 44" fill="none" xmlns="http://www.w3.org/2000/svg">
<g id="Frame" style="mix-blend-mode:luminosity" opacity="0.6" clip-path="url(#clip0_681_2193)">
<g id="Group">
<g id="Group_2">
<g id="Group_3">
<g id="Group_4">
<g id="Group_5">
<g id="Group_6">
<g id="Group_7">
<path id="Vector" d="M4.60985 11.7308L3.02737 10.0107C1.10086 13.2789 0 17.0975 0 20.9849H1.10086C1.10086 17.3383 2.33933 14.0358 4.60985 11.7308Z" fill="url(#paint0_linear_681_2193)"/>
<path id="Vector_2" d="M4.30023 28.7599C2.33933 26.9022 1.10086 24.3565 1.10086 20.9851C1.10086 20.9851 1.10086 20.9851 1.10086 20.9507H0C0 24.9069 0.688038 28.5879 2.09851 31.7873L4.30023 28.7599Z" fill="url(#paint1_linear_681_2193)"/>
<path id="Vector_3" d="M38.8398 18.1641L36.8101 20.2282C39.5966 20.2626 41.3167 22.4299 41.2479 25.182H42.3488C42.3488 22.4987 41.0759 20.0218 38.8398 18.1641Z" fill="url(#paint2_linear_681_2193)"/>
<path id="Vector_4" d="M42.3488 25.2168H41.248C41.1792 27.4873 39.9751 29.3794 37.2917 30.7899L40.1127 34.6773C41.5232 32.1316 42.3488 29.001 42.3488 25.2168Z" fill="url(#paint3_linear_681_2193)"/>
<path id="Vector_5" d="M5.74503 17.8204C5.67623 18.2332 5.60742 18.6804 5.60742 19.1276C5.60742 25.5952 10.4237 29.7234 16.5128 29.7234C28.1063 29.7234 31.5464 20.2629 36.7067 20.2629C36.7411 20.2629 36.7755 20.2629 36.7755 20.2629L38.8052 18.1988C36.2939 16.1347 32.5785 14.8618 28.0719 14.8618C18.8865 14.8618 14.0359 22.5334 9.83885 22.5334C8.01555 22.5334 6.63948 20.5381 6.63948 18.6116C6.63948 18.4052 6.63948 18.2332 6.67388 18.0268L5.74503 17.8204Z" fill="url(#paint4_linear_681_2193)"/>
<path id="Vector_6" d="M12.9007 8.32525C19.6091 8.32525 24.2533 13.3823 30.2048 13.3823C37.3604 13.3823 41.3166 9.90774 42.3143 3.06177L41.2134 2.88976C40.9382 4.71306 39.7686 6.88037 37.67 6.88037C35.6747 6.88037 33.5762 5.12588 30.48 3.44019C27.4183 1.68569 23.8749 0 19.4714 0C12.3847 0 6.43313 4.16263 3.02734 9.97654L4.60983 11.6966C6.63954 9.59812 9.4605 8.32525 12.9007 8.32525Z" fill="url(#paint5_linear_681_2193)"/>
<path id="Vector_7" d="M19.9188 33.5072C14.7241 33.5072 8.18777 32.372 4.33476 28.7598L2.09863 31.8215C5.29801 39.1835 12.1096 44.0342 22.3269 44.0342C29.0697 44.0342 36.5349 41.3509 40.1471 34.6769L37.3262 30.7895C33.9892 32.5096 28.3817 33.5072 19.9188 33.5072Z" fill="url(#paint6_linear_681_2193)"/>
</g>
</g>
</g>
</g>
</g>
</g>
<g id="Group_8">
<g id="Group_9">
<g id="Group_10">
<g id="Group_11">
<g id="Group_12">
<g id="Group_13">
<g id="Group_14">
<path id="Vector_8" d="M60.1345 32.9228C53.4261 32.9228 49.7107 28.5193 49.7107 21.983C49.7107 15.4466 53.7357 11.0088 60.2377 11.0088C62.8522 11.0088 65.0195 11.628 66.7052 12.5569L66.0172 17.1323C64.4347 16.1347 62.5426 15.309 60.3753 15.309C56.7287 15.309 54.9398 17.9924 54.9398 21.9486C54.9398 25.9392 56.7631 28.7258 60.4097 28.7258C61.5793 28.7258 62.405 28.5193 63.265 28.0377V24.2879H59.584L58.9648 20.4005H67.8061V30.6867C65.6388 32.1315 63.0242 32.9228 60.1345 32.9228Z" fill="#0068B7"/>
<path id="Vector_9" d="M77.8859 32.785C75.0306 32.785 72.6568 32.1658 70.5239 31.2026L71.2808 26.7303C73.4481 27.9 75.8906 28.6912 77.9891 28.6912C79.5028 28.6912 80.5349 28.0376 80.5349 26.7991C80.5349 25.5951 79.9156 25.0446 76.9571 23.9094C72.7256 22.2925 70.9023 20.9164 70.9023 17.4074C70.9023 13.348 74.1017 11.1807 78.1267 11.1807C80.8789 11.1807 82.6678 11.6967 84.4911 12.5911L83.6998 16.9946C81.8077 15.8937 79.8124 15.2745 78.1955 15.2745C76.6131 15.2745 75.8218 15.9281 75.8218 16.9258C75.8218 17.9922 76.4066 18.5083 79.0212 19.5403C83.5966 21.226 85.4543 22.8085 85.4543 26.1799C85.4543 30.7553 82.083 32.785 77.8859 32.785Z" fill="#0068B7"/>
</g>
</g>
</g>
</g>
</g>
</g>
<g id="Group_15">
<path id="Vector_10" d="M93.5044 32.4753V11.4214H104.513V13.3135H95.6373V20.5379H102.655L102.965 22.43H95.6373V30.6176H104.823V32.5097H93.5044V32.4753Z" fill="#898788"/>
<path id="Vector_11" d="M113.63 23.5997H111.015V32.4753H108.917V11.4214H114.146C118.377 11.4214 121.06 13.5543 121.06 17.3385C120.992 21.5011 117.93 23.5997 113.63 23.5997ZM113.939 13.2791H110.981V21.742H113.698C116.898 21.742 118.859 20.3315 118.859 17.4073C118.859 14.6896 117.173 13.2791 113.939 13.2791Z" fill="#898788"/>
<path id="Vector_12" d="M129.007 32.7506C126.668 32.7506 124.776 32.1658 123.434 31.4434L123.744 29.3104C125.017 30.1361 126.977 30.8929 129.11 30.8929C131.587 30.8929 133.445 29.4825 133.445 27.1087C133.445 25.0446 132.413 23.9782 129.214 22.6021C125.189 20.8476 123.709 19.4715 123.709 16.4786C123.709 13.3136 126.289 11.1807 129.764 11.1807C131.759 11.1807 133.307 11.6279 134.408 12.2815L134.099 14.38C132.895 13.5888 131.45 13.0384 129.661 13.0384C127.184 13.0384 125.808 14.5176 125.808 16.3409C125.808 18.2674 126.805 19.1963 130.039 20.6068C133.961 22.3269 135.544 23.8406 135.544 26.9367C135.544 30.5489 132.688 32.7506 129.007 32.7506Z" fill="#898788"/>
</g>
</g>
</g>
</g>
<defs>
<linearGradient id="paint0_linear_681_2193" x1="5.22468" y1="12.3106" x2="-1.20231" y2="18.7376" gradientUnits="userSpaceOnUse">
<stop stop-color="#FABE00"/>
<stop offset="1" stop-color="#C8C400"/>
</linearGradient>
<linearGradient id="paint1_linear_681_2193" x1="-1.37164" y1="23.4293" x2="4.13775" y2="28.9388" gradientUnits="userSpaceOnUse">
<stop stop-color="#C8C400"/>
<stop offset="1" stop-color="#7FBE26"/>
</linearGradient>
<linearGradient id="paint2_linear_681_2193" x1="37.7161" y1="19.3266" x2="42.4006" y2="24.0111" gradientUnits="userSpaceOnUse">
<stop stop-color="#7ECEF4"/>
<stop offset="1" stop-color="#00B3C4"/>
</linearGradient>
<linearGradient id="paint3_linear_681_2193" x1="43.3294" y1="27.3019" x2="38.5954" y2="32.0358" gradientUnits="userSpaceOnUse">
<stop stop-color="#00B3C4"/>
<stop offset="1" stop-color="#009E96"/>
</linearGradient>
<linearGradient id="paint4_linear_681_2193" x1="7.93901" y1="22.2748" x2="36.7335" y2="22.2748" gradientUnits="userSpaceOnUse">
<stop stop-color="#0068B7"/>
<stop offset="1" stop-color="#7ECEF4"/>
</linearGradient>
<linearGradient id="paint5_linear_681_2193" x1="3.02325" y1="6.69048" x2="42.3395" y2="6.69048" gradientUnits="userSpaceOnUse">
<stop stop-color="#FABE00"/>
<stop offset="0.0391659" stop-color="#F9BB00"/>
<stop offset="0.6977" stop-color="#EF7C00"/>
<stop offset="1" stop-color="#EB6100"/>
</linearGradient>
<linearGradient id="paint6_linear_681_2193" x1="4.31824" y1="36.3821" x2="37.3166" y2="36.3821" gradientUnits="userSpaceOnUse">
<stop stop-color="#7FBE26"/>
<stop offset="1" stop-color="#009E96"/>
</linearGradient>
<clipPath id="clip0_681_2193">
<rect width="135.543" height="44" fill="white"/>
</clipPath>
</defs>
</svg>
