<svg width="186" height="35" viewBox="0 0 186 35" fill="none" xmlns="http://www.w3.org/2000/svg">
<g id="Frame" style="mix-blend-mode:luminosity" opacity="0.6" clip-path="url(#clip0_681_2148)">
<g id="Group">
<g id="Group_2">
<path id="Vector" d="M163.216 18.1077L168.493 9.23342L173.769 18.1077H178.566L173.29 9.23342H178.086V5.63574H159.019V9.23342H163.816L158.419 18.1077H163.216Z" fill="#004199"/>
<path id="Vector_2" d="M186.001 4.79688H181.684V9.95355C181.204 9.35394 180.485 8.99417 179.765 8.99417C178.446 8.99417 177.247 10.0735 177.247 11.5125C177.247 12.8317 178.326 14.0309 179.765 14.0309C180.604 14.0309 181.204 13.6712 181.684 13.0715V23.9845H165.374H164.895V19.6673H160.577V23.9845C160.577 26.0232 162.256 27.5822 164.415 27.5822H181.684H182.883H186.001V23.9845V4.79688Z" fill="#004199"/>
<path id="Vector_3" d="M115.966 9.59378C115.486 8.99417 114.766 8.6344 114.047 8.6344C112.728 8.6344 111.529 9.7137 111.529 11.1528C111.529 12.5918 112.608 13.6711 114.047 13.6711C114.886 13.6711 115.486 13.3114 115.966 12.7118V27.7021H120.283V4.79688H115.966V9.59378Z" fill="#004199"/>
<path id="Vector_4" d="M104.214 5.63574H101.456H99.4171L92.5815 17.1483H97.2585L102.775 7.91427L108.291 17.1483H113.088L106.253 5.63574H104.214Z" fill="#004199"/>
<path id="Vector_5" d="M144.628 14.6299V13.5506V5.63574H140.311V6.95489H129.998V5.63574H125.68V11.2721C125.68 13.0709 127.239 14.6299 129.278 14.6299H144.628ZM140.311 10.0729V11.512H129.998V10.0729H140.311Z" fill="#004199"/>
<path id="Vector_6" d="M154.58 9.47386C153.741 9.47386 153.141 9.83363 152.662 10.4332V4.79688H148.344V15.8298H127.118V18.9477H148.225V20.147H127.118V23.265V24.2243C127.118 26.0232 128.677 27.5822 130.716 27.5822H152.542V24.4642H131.435V23.265H152.542V22.9052V19.1876V13.4313C153.021 14.0309 153.741 14.3907 154.461 14.3907C155.78 14.3907 156.979 13.3114 156.979 11.8723C156.979 10.5532 155.9 9.47386 154.58 9.47386Z" fill="#004199"/>
<path id="Vector_7" d="M77.111 14.7499H87.6642V11.1522H67.0375H66.5579V9.23342H87.6642V5.63574H65.3586H62.2406V11.1522C62.2406 13.1909 63.9196 14.7499 66.0782 14.7499H72.7938V16.069H60.6816V19.6667H69.3161C68.8364 20.6261 68.4766 21.5855 68.4766 22.7847C68.4766 26.3824 71.3548 29.2605 74.9524 29.2605C78.5501 29.2605 81.4283 26.3824 81.4283 22.7847C81.4283 21.7054 81.1884 20.6261 80.5888 19.6667H89.2232V16.069H77.111V14.7499ZM74.9524 25.423C73.5134 25.423 72.3141 24.2238 72.3141 22.7847C72.3141 21.3456 73.5134 20.1464 74.9524 20.1464C76.3915 20.1464 77.5907 21.3456 77.5907 22.7847C77.5907 24.2238 76.3915 25.423 74.9524 25.423Z" fill="#004199"/>
</g>
<g id="Group_3">
<path id="Vector_8" d="M36.4565 0C32.8588 0 29.501 1.0793 26.7427 2.99807C23.9845 1.0793 20.6267 0 17.029 0C7.67505 0 0 7.67505 0 17.029C0 26.383 7.67505 34.058 17.029 34.058C20.6267 34.058 23.9845 32.9787 26.7427 31.06C29.501 32.9787 32.8588 34.058 36.4565 34.058C45.8104 34.058 53.4855 26.383 53.4855 17.029C53.4855 7.67505 45.9304 0 36.4565 0Z" fill="white"/>
<g id="Group_4">
<path id="Vector_9" d="M52.1668 10.5516C51.9269 9.83204 51.5672 9.23243 51.2074 8.63281L33.219 22.304L26.7432 27.2208L24.2248 28.7798L16.0701 33.9365C16.4298 33.9365 16.6697 33.9365 17.0294 33.9365C18.1088 33.9365 19.0681 33.8166 20.1474 33.6966L24.9443 29.3794L26.8631 27.7005L32.7393 23.7431L52.1668 10.5516Z" fill="#E6001F"/>
<path id="Vector_10" d="M52.5262 11.2715L26.8628 31.0587C29.621 32.8576 32.8589 33.9369 36.4566 33.9369C45.8106 33.9369 53.4856 26.2618 53.4856 16.9078C53.4856 14.9891 53.1258 13.0703 52.5262 11.2715Z" fill="#E6001F"/>
<path id="Vector_11" d="M17.029 0C7.67505 0 0 7.67505 0 17.029C0 19.0677 0.359768 20.9865 0.959381 22.7853L26.6228 2.99807C23.8646 1.0793 20.6267 0 17.029 0Z" fill="#E6001F"/>
<path id="Vector_12" d="M26.7419 13.7909L32.4982 9.95338L44.4905 2.03848C43.771 1.67871 43.0514 1.31895 42.3319 1.0791L32.1385 9.11392L26.8619 13.3112L19.6665 18.228L4.31641 28.3015C4.7961 28.9012 5.27579 29.3808 5.8754 29.8605L19.6665 19.3073L26.7419 13.7909Z" fill="#E6001F"/>
<path id="Vector_13" d="M26.743 17.2671L33.4587 12.8299L47.01 3.83575C46.4104 3.35606 45.8107 2.99629 45.2111 2.5166L33.2189 11.8706L26.743 16.7874L20.0274 21.2245L6.3562 30.3387C6.95581 30.8183 7.55543 31.1781 8.15504 31.6578L20.1473 22.3038L26.743 17.2671Z" fill="#E6001F"/>
<path id="Vector_14" d="M26.7432 20.7476L33.9386 15.9507L49.1688 5.75724C48.6891 5.15762 48.2094 4.67793 47.6098 4.19824L33.8187 14.7514L26.6233 20.2679L20.867 24.1054L8.87476 32.0203C9.59429 32.3801 10.3138 32.7398 11.0334 32.9797L21.2268 24.9449L26.7432 20.7476Z" fill="#E6001F"/>
<path id="Vector_15" d="M26.7431 10.3116L31.0603 7.43344L41.3737 0.717777C40.5342 0.477932 39.5748 0.238087 38.7354 0.118164L30.5806 6.71391L26.7431 9.8319L19.6677 14.6288L2.63867 26.0215C2.99844 26.6211 3.47813 27.2207 3.8379 27.8203L19.4278 15.828L26.7431 10.3116Z" fill="#E6001F"/>
<path id="Vector_16" d="M26.7427 6.83559L29.2611 5.2766L37.4159 0C37.0561 0 36.8162 0 36.4565 0C35.3772 0 34.4178 0.119923 33.3385 0.239845L28.5416 4.55706L26.6228 6.23598L20.7466 10.1934L1.19922 23.3849C1.43906 24.1045 1.79883 24.7041 2.1586 25.3037L20.2669 11.7524L26.7427 6.83559Z" fill="#E6001F"/>
<path id="Vector_17" d="M26.7428 24.2245L33.8182 19.4276L50.8473 7.91505C50.4875 7.31544 50.0078 6.71582 49.648 6.11621L34.0581 18.1085L26.8627 23.6249L22.5455 26.5031L12.2322 33.2187C13.0716 33.4586 14.031 33.6984 14.8705 33.8183L23.0252 27.2226L26.7428 24.2245Z" fill="#E6001F"/>
</g>
<g id="Group_5">
<path id="Vector_18" d="M11.033 16.909C11.033 19.5473 13.1916 21.8258 15.9498 21.8258H21.2264V19.1875H16.0697C15.3502 19.1875 14.6306 18.8278 14.2709 18.2282H21.2264V15.5899H14.3908C14.7506 14.9903 15.4701 14.6305 16.1896 14.6305H21.3463V11.9922H15.9498C13.3115 12.1121 11.033 14.2707 11.033 16.909Z" fill="#E6001F" stroke="#E6001F" stroke-width="0.784848"/>
<path id="Vector_19" d="M40.8936 12.1104H39.6944H34.178V14.7486H39.4546H40.8936C41.3733 14.7486 41.853 15.1084 41.853 15.708C41.853 16.1877 41.4933 16.6674 40.8936 16.6674H34.2979V19.1858V21.8241H37.176V19.1858H40.7737C42.6925 19.1858 44.3714 17.6268 44.3714 15.5881C44.3714 13.6693 42.8124 12.1104 40.8936 12.1104Z" fill="#E6001F" stroke="#E6001F" stroke-width="0.784848"/>
<path id="Vector_20" d="M30.9398 18.4662C30.9398 18.9459 30.58 19.4256 29.9804 19.4256C29.5007 19.4256 29.021 19.0659 29.021 18.4662V17.0272V12.1104H26.3827V17.267V18.4662C26.3827 18.9459 26.023 19.4256 25.4234 19.4256C24.9437 19.4256 24.464 19.0659 24.464 18.4662V17.0272V12.1104H21.8257V17.267V18.4662C21.8257 20.385 23.3847 22.0639 25.4234 22.0639C26.2628 22.0639 27.1023 21.8241 27.7019 21.2245C28.3015 21.7042 29.141 22.0639 29.9804 22.0639C31.8992 22.0639 33.5781 20.5049 33.5781 18.4662V12.1104H30.9398V18.4662Z" fill="#E6001F" stroke="#E6001F" stroke-width="0.784848"/>
</g>
<g id="Group_6">
<path id="Vector_21" d="M11.033 16.909C11.033 19.5473 13.1916 21.8258 15.9498 21.8258H21.2264V19.1875H16.0697C15.3502 19.1875 14.6306 18.8278 14.2709 18.2282H21.2264V15.5899H14.3908C14.7506 14.9903 15.4701 14.6305 16.1896 14.6305H21.3463V11.9922H15.9498C13.3115 12.1121 11.033 14.2707 11.033 16.909Z" fill="white"/>
<path id="Vector_22" d="M40.8936 12.1104H39.6944H34.178V14.7486H39.4546H40.8936C41.3733 14.7486 41.853 15.1084 41.853 15.708C41.853 16.1877 41.4933 16.6674 40.8936 16.6674H34.2979V19.1858V21.8241H37.176V19.1858H40.7737C42.6925 19.1858 44.3714 17.6268 44.3714 15.5881C44.3714 13.6693 42.8124 12.1104 40.8936 12.1104Z" fill="white"/>
<path id="Vector_23" d="M30.9398 18.4662C30.9398 18.9459 30.58 19.4256 29.9804 19.4256C29.5007 19.4256 29.021 19.0659 29.021 18.4662V17.0272V12.1104H26.3827V17.267V18.4662C26.3827 18.9459 26.023 19.4256 25.4234 19.4256C24.9437 19.4256 24.464 19.0659 24.464 18.4662V17.0272V12.1104H21.8257V17.267V18.4662C21.8257 20.385 23.3847 22.0639 25.4234 22.0639C26.2628 22.0639 27.1023 21.8241 27.7019 21.2245C28.3015 21.7042 29.141 22.0639 29.9804 22.0639C31.8992 22.0639 33.5781 20.5049 33.5781 18.4662V12.1104H30.9398V18.4662Z" fill="white"/>
</g>
</g>
</g>
</g>
<defs>
<clipPath id="clip0_681_2148">
<rect width="186" height="34.058" fill="white"/>
</clipPath>
</defs>
</svg>
