<svg width="164" height="34" viewBox="0 0 164 34" fill="none" xmlns="http://www.w3.org/2000/svg">
<g id="Frame 427319190" style="mix-blend-mode:luminosity" opacity="0.6">
<g id="Group">
<path id="Vector" d="M29.4866 17.0001C29.4866 17.0001 28.7133 16.2269 27.3557 15.1442C26.2387 14.2679 24.5547 13.1509 22.6816 11.9995C22.6816 11.9995 20.9976 10.9169 21.1007 9.83434C21.2038 8.80328 22.2005 8.47678 23.7642 8.59707C23.7642 8.59707 27.3385 8.59707 32.8031 12.326V1.84368C32.8031 1.84368 25.2077 -1.30102 17.8013 0.623607C17.8013 0.623607 11.1167 1.91242 10.7214 7.70349C10.7214 7.70349 10.2746 10.2124 12.3711 12.9103C13.2647 14.0616 14.0036 14.7834 16.5125 16.3471C16.5125 16.3471 19.0558 17.9796 19.7603 18.6842C19.7603 18.6842 22.9394 20.9869 23.1284 24.8533C23.1628 25.4548 23.1628 26.1421 23.0253 26.8123C22.8535 27.6372 22.527 28.7026 21.8396 29.7164C21.8396 29.7164 21.0491 31.263 18.9011 32.4659C18.9011 32.4659 29.0226 34.9233 32.2532 27.809C32.2532 27.8262 34.8652 22.5506 29.4866 17.0001Z" fill="#E6002D"/>
<path id="Vector_2" d="M3.40074 16.7602C3.40074 16.7602 4.17403 17.5335 5.53158 18.6161C6.64856 19.4925 8.33261 20.6094 10.2057 21.7608C10.2057 21.7608 11.8897 22.8434 11.7866 23.926C11.6835 24.957 10.6868 25.2835 9.12308 25.1632C9.12308 25.1632 5.54877 25.1632 0.0841945 21.4343V31.9338C0.0841945 31.9338 7.67961 35.0785 15.086 33.1539C15.086 33.1539 21.7706 31.8651 22.1659 26.074C22.1659 26.074 22.6127 23.5651 20.5162 20.8672C19.6226 19.7158 18.8837 18.9941 16.3748 17.4303C16.3748 17.4303 13.8315 15.7978 13.127 15.0933C13.127 15.0933 9.94792 12.7906 9.75889 8.92417C9.72453 8.32272 9.72453 7.63536 9.862 6.96517C10.0338 6.14033 10.3603 5.07491 11.0477 4.06104C11.0477 4.06104 11.8382 2.51447 13.9862 1.31157C13.9862 1.31157 3.86472 -1.14577 0.634088 5.96849C0.634088 5.93412 -1.97791 11.2097 3.40074 16.7602Z" fill="#9F9F95"/>
</g>
<g id="Group_2">
<g id="Group_3">
<path id="Vector_3" d="M46.1399 12.5259L48.0781 17.1164H48.1121L47.33 19.0886H51.6485L54.0627 12.6959L56.7149 19.4286H60.0813V19.9386H64.8417V14.6341H68.3781V11.2338H64.8417V6.9834H60.0813V17.0144L56.2049 7.25543H56.1709H51.9205H51.8865L50.1183 11.8119L48.1801 7.25543H43.8957L39.1353 19.4286H43.4197L46.1399 12.5259Z" fill="black"/>
<path id="Vector_4" d="M65.6242 26.1639C65.6242 21.8115 60.1157 20.4854 53.689 20.4854C47.2624 20.4854 42.0599 22.3555 42.0599 26.5379C42.0599 30.7203 47.5685 32.2165 53.9951 32.2165C59.5716 32.1825 65.6242 30.4823 65.6242 26.1639ZM47.3304 26.3339C47.3304 24.4297 50.2547 23.4776 53.8591 23.4776C57.4634 23.4776 60.3877 24.2597 60.3877 26.3339C60.3877 28.4081 57.4634 29.1902 53.8591 29.1902C50.2547 29.1902 47.3304 28.2381 47.3304 26.3339Z" fill="black"/>
<path id="Vector_5" d="M97.2797 26.4352C97.2797 22.4568 91.7031 20.6206 84.8345 20.6206C77.9658 20.6206 72.3893 22.2528 72.3893 26.4352C72.3893 30.5836 77.9658 32.2497 84.8345 32.2497C91.7031 32.2497 97.2797 30.4476 97.2797 26.4352ZM84.8345 29.2574C80.7541 29.2574 77.4558 28.5434 77.4558 26.4352C77.4558 24.327 80.7541 23.6129 84.8345 23.6129C88.9149 23.6129 92.2132 24.327 92.2132 26.4352C92.2132 28.5434 88.9149 29.2574 84.8345 29.2574Z" fill="black"/>
<path id="Vector_6" d="M98.4065 16.5399H92.7959V14.2617C95.1762 13.4796 96.7063 12.2555 96.7063 10.4193C96.7063 6.95095 91.3678 5.59082 84.8052 5.59082C78.2425 5.59082 72.904 6.67892 72.904 10.4193C72.904 12.3915 74.4002 13.6496 76.8144 14.3637V16.5399H71.1359V19.8042H98.4065V16.5399ZM84.7712 8.4811C88.6815 8.4811 91.8439 8.95714 91.8439 10.3853C91.8439 11.8474 88.6815 12.2895 84.7712 12.2895C80.8608 12.2895 77.6985 11.8814 77.6985 10.3853C77.6985 8.85513 80.8608 8.4811 84.7712 8.4811ZM81.3368 15.1117C82.4249 15.1797 83.5811 15.2477 84.7712 15.2477C85.9613 15.2477 87.1514 15.2137 88.2395 15.1117V16.5739H81.3368V15.1117Z" fill="black"/>
</g>
<path id="Vector_7" d="M140.915 24.2889C142.106 22.3847 142.65 20.9226 142.82 18.7124V18.6103H139.283V18.7124C139.249 19.5624 139.147 20.3785 138.603 21.8406V21.8747L135.033 18.2363L134.999 18.2023L135.033 18.1683C135.951 17.6582 138.433 16.2981 138.433 13.6119C138.433 12.6938 138.059 9.66748 133.163 9.66748C128.028 9.66748 127.756 13.0678 127.756 13.7479C127.756 15.7201 129.252 16.9442 129.898 17.4882L129.932 17.5222L129.796 17.6242C129.184 17.9983 128.334 18.5423 127.484 19.5964C126.634 20.6505 126.226 21.8066 126.226 23.0648C126.226 26.2951 128.844 28.4033 132.891 28.4033C135.917 28.4033 137.549 27.1792 138.603 26.3631L139.997 28.0292H144.52L140.915 24.2889ZM133.129 16.3321C133.095 16.3321 131.327 14.904 131.327 13.6799C131.327 12.6938 132.075 11.9797 133.129 11.9797C134.183 11.9797 134.931 12.6938 134.931 13.7139C134.931 14.904 133.673 15.9241 133.129 16.3321ZM131.871 19.8345L136.529 24.5609L136.495 24.5949C135.781 25.173 134.421 25.819 133.095 25.819C131.463 25.819 129.83 24.9349 129.83 22.9288C129.864 21.3306 130.987 20.4125 131.871 19.8345Z" fill="black"/>
<path id="Vector_8" d="M114.219 31.434C106.569 31.434 102.488 27.2176 102.488 18.7848C102.488 12.7662 104.834 5.72754 114.253 5.72754C119.558 5.72754 123.672 8.82183 123.876 13.4803H118.98C118.776 12.3582 117.926 9.29788 114.049 9.29788C109.493 9.29788 107.623 12.8682 107.623 18.8188C107.623 20.2809 107.963 27.8977 113.709 27.8977C117.28 27.8977 118.776 26.0615 119.048 23.3072H124.08C123.978 24.5654 123.502 26.7756 121.666 28.6797C119.864 30.5159 116.906 31.434 114.219 31.434Z" fill="black"/>
<path id="Vector_9" d="M146.523 30.9572V6.23682H163.558V9.77315H151.317V16.7438H162.878V20.2462H151.317V27.4208H164V30.9572H146.523Z" fill="black"/>
</g>
</g>
</svg>
