<svg width="125" height="30" viewBox="0 0 125 30" fill="none" xmlns="http://www.w3.org/2000/svg">
<g id="ci-logo 4" clip-path="url(#clip0_1211_2909)">
<g id="Group">
<g id="Group_2">
<g id="Group_3">
<path id="Vector" fill-rule="evenodd" clip-rule="evenodd" d="M40.0788 2.21248C41.4375 0.954983 43.1688 0.326233 45.27 0.326233C48.0788 0.326233 50.135 1.16748 51.4338 2.84873C52.1513 3.79498 52.5363 4.74373 52.59 5.69373H49.0613C48.8363 4.96248 48.5488 4.41248 48.1963 4.03998C47.5688 3.37748 46.6363 3.04623 45.4038 3.04623C44.1463 3.04623 43.155 3.51498 42.4288 4.44623C41.7038 5.38123 41.3413 6.70373 41.3413 8.41373C41.3413 10.1237 41.7238 11.405 42.49 12.2537C43.255 13.1075 44.2275 13.5337 45.4088 13.5337C46.6188 13.5337 47.5413 13.1675 48.1763 12.4375C48.5263 12.0425 48.8175 11.4525 49.0488 10.6675H52.5563C52.2525 12.33 51.4813 13.68 50.2375 14.72C48.9938 15.7625 47.4025 16.2825 45.4613 16.2825C43.0588 16.2825 41.17 15.58 39.7963 14.1725C38.4213 12.76 37.7325 10.8237 37.7325 8.36123C37.7325 5.70248 38.515 3.64998 40.0788 2.21248ZM55.145 15.8612V0.616233H58.65V6.43123H65.2138V0.616233H68.72V15.8612H65.2138V9.05748H58.65V15.8612H55.145ZM71.8713 0.616233H75.455V9.97873C75.455 11.0262 75.5938 11.7912 75.865 12.2737C76.2913 13.1275 77.2213 13.5537 78.65 13.5537C80.0738 13.5537 81 13.1275 81.425 12.2737C81.6988 11.7912 81.835 11.0262 81.835 9.97873V0.616233H85.4213V9.98748C85.4213 11.6062 85.1425 12.87 84.5875 13.7712C83.55 15.425 81.5713 16.2525 78.65 16.2525C75.7313 16.2525 73.75 15.425 72.705 13.7712C72.1488 12.87 71.8713 11.6062 71.8713 9.98748V0.616233ZM88.5138 0.616233H92.2138L98.9163 11.245V0.616233H102.204V15.8612H98.6763L91.8038 5.04373V15.8612H88.5138V0.616233Z" fill="white"/>
<g id="Mask group">
<mask id="mask0_1211_2909" style="mask-type:luminance" maskUnits="userSpaceOnUse" x="0" y="0" width="125" height="30">
<g id="Group_4">
<path id="Vector_2" d="M0 30H125V0H0V30Z" fill="white"/>
</g>
</mask>
<g mask="url(#mask0_1211_2909)">
<path id="Vector_3" fill-rule="evenodd" clip-rule="evenodd" d="M105.733 15.8613H109.238V0.617522H105.733V15.8613ZM113.04 0.616272H116.569V13.1188H125V15.8613H113.04V0.616272Z" fill="white"/>
</g>
</g>
<g id="Mask group_2">
<mask id="mask1_1211_2909" style="mask-type:luminance" maskUnits="userSpaceOnUse" x="0" y="0" width="125" height="30">
<g id="Group_5">
<path id="Vector_4" d="M0 30H125V0H0V30Z" fill="white"/>
</g>
</mask>
<g mask="url(#mask1_1211_2909)">
<path id="Vector_5" fill-rule="evenodd" clip-rule="evenodd" d="M17.6125 8.5925V1.53L25.9213 11.5538L17.6125 8.5925ZM17.6125 14.515V9.55L25.0713 14.0363L17.6125 14.515ZM17.6125 20.3387V15.85L25.1675 16.4225L17.6125 20.3387ZM17.6125 28.4513V21.1012L26.2988 18.7137L17.6125 28.4513ZM27.62 25.4912V29.9813H24.695L27.62 25.4912ZM27.62 20.53L24.22 29.9813H17.6125V28.5513L27.62 20.53ZM25.1675 0H27.62V4.3925L25.1675 0ZM17.6125 0H24.7875L27.4325 9.74L17.6125 0.955V0Z" fill="white"/>
</g>
</g>
<g id="Mask group_3">
<mask id="mask2_1211_2909" style="mask-type:luminance" maskUnits="userSpaceOnUse" x="0" y="0" width="125" height="30">
<g id="Group_6">
<path id="Vector_6" d="M0 30H125V0H0V30Z" fill="white"/>
</g>
</mask>
<g mask="url(#mask2_1211_2909)">
<path id="Vector_7" fill-rule="evenodd" clip-rule="evenodd" d="M14.7888 30C6.63375 30 0 23.2925 0 15.0438C0 6.79877 6.63375 0.0875244 14.7875 0.0875244V8.50752C11.225 8.50752 8.325 11.4388 8.325 15.0425C8.325 18.6463 11.225 21.58 14.7875 21.58V30H14.7888Z" fill="white"/>
</g>
</g>
<g id="Mask group_4">
<mask id="mask3_1211_2909" style="mask-type:luminance" maskUnits="userSpaceOnUse" x="0" y="0" width="125" height="30">
<g id="Group_7">
<path id="Vector_8" d="M0 30H125V0H0V30Z" fill="white"/>
</g>
</mask>
<g mask="url(#mask3_1211_2909)">
<path id="Vector_9" fill-rule="evenodd" clip-rule="evenodd" d="M87.8212 24.4575H89.1637C90.035 24.4575 90.5825 24.42 90.7975 24.345C91.0125 24.2713 91.1825 24.1425 91.3037 23.9613C91.4287 23.7813 91.4912 23.5513 91.4912 23.2788C91.4912 22.9713 91.4075 22.7263 91.245 22.535C91.0862 22.3475 90.8612 22.2275 90.5637 22.1788C90.4137 22.16 89.9737 22.1488 89.2387 22.1488H87.8212V24.4575ZM86.0062 29.7075V20.61H89.8287C90.7875 20.61 91.485 20.6913 91.9225 20.855C92.3575 21.02 92.705 21.31 92.97 21.73C93.2287 22.1475 93.3575 22.6213 93.3575 23.16C93.3575 23.8413 93.1612 24.4063 92.7637 24.8513C92.3687 25.2963 91.7762 25.575 90.985 25.6913C91.3775 25.9225 91.7 26.1788 91.96 26.4538C92.215 26.7325 92.56 27.225 92.995 27.9325L94.0887 29.7075H91.92L90.605 27.7275C90.1412 27.0175 89.8225 26.5725 89.65 26.3863C89.475 26.2063 89.295 26.08 89.1025 26.0088C88.9112 25.9438 88.605 25.9088 88.1887 25.9088H87.8212V29.7063H86.0062V29.7075ZM46.8862 22.2438H41.9137V24.1825H46.4762V25.7725H41.9137V28.12H47.1162V29.7613H39.995V20.6275H46.8862V22.2438ZM54.9837 20.6288H57.0412L60.7712 26.9975V20.6288H62.6037V29.7613H60.64L56.8175 23.2788V29.7613H54.9837V20.6288ZM77.765 22.2438H72.7912V24.1825H77.3562V25.7725H72.7912V28.12H77.995V29.7613H70.8737V20.6275H77.765V22.2438ZM107.029 23.4813C106.88 22.8538 106.516 22.4188 105.939 22.1688C105.614 22.0313 105.257 21.9638 104.86 21.9638C104.104 21.9638 103.481 22.2425 102.994 22.7963C102.509 23.3488 102.266 24.1863 102.266 25.2975C102.266 26.4225 102.527 27.215 103.056 27.6825C103.584 28.1488 104.181 28.3813 104.856 28.3813C105.512 28.3813 106.052 28.1975 106.474 27.8313C106.894 27.4613 107.155 26.9813 107.25 26.3838H105.08V24.8613H108.992V29.7613H107.692L107.495 28.6213C107.114 29.055 106.776 29.3588 106.474 29.5375C105.952 29.8438 105.319 30 104.561 30C103.317 30 102.294 29.58 101.499 28.7413C100.674 27.8988 100.257 26.7475 100.257 25.285C100.257 23.8063 100.677 22.6188 101.516 21.7288C102.349 20.835 103.459 20.39 104.836 20.39C106.029 20.39 106.986 20.6863 107.712 21.2775C108.437 21.8638 108.852 22.6013 108.959 23.4813H107.029ZM120.952 20.6288H123.18L120.036 26.3375V29.7613H118.072V26.3375L114.82 20.6288H117.136L119.086 24.6063L120.952 20.6288Z" fill="white"/>
</g>
</g>
</g>
</g>
</g>
</g>
<defs>
<clipPath id="clip0_1211_2909">
<rect width="125" height="30" fill="white"/>
</clipPath>
</defs>
</svg>
