<svg width="22" height="22" viewBox="0 0 22 22" fill="none" xmlns="http://www.w3.org/2000/svg">
<g id="map-pin">
<path id="Exclude" fill-rule="evenodd" clip-rule="evenodd" d="M15.0893 13.3971C15.1223 13.3557 15.1575 13.3162 15.195 13.2787C16.0247 12.4489 16.5898 11.3917 16.8187 10.2408C17.0476 9.08981 16.9301 7.89683 16.481 6.81267C16.0319 5.72852 15.2714 4.80188 14.2957 4.14993C13.32 3.49798 12.1728 3.15 10.9994 3.15C9.82586 3.15 8.67873 3.49798 7.703 4.14993C6.72728 4.80188 5.96679 5.72852 5.5177 6.81267C5.06861 7.89683 4.95109 9.08981 5.18 10.2408C5.40892 11.3917 5.97398 12.4489 6.80374 13.2787C6.84113 13.3161 6.87638 13.3556 6.9093 13.397L10.7327 18.2023C10.8085 18.2616 10.9025 18.2944 10.9998 18.2944C11.0971 18.2944 11.191 18.2617 11.2669 18.2023L15.0893 13.3971ZM12.2955 19.1581C11.9518 19.5015 11.4857 19.6944 10.9998 19.6944C10.5139 19.6944 10.0479 19.5015 9.7041 19.1581L5.81377 14.2686C4.78822 13.243 4.08983 11.9364 3.8069 10.5139C3.52397 9.09134 3.66922 7.61687 4.22427 6.2769C4.77933 4.93693 5.71926 3.79164 6.92521 2.98586C8.13116 2.18008 9.54897 1.75 10.9994 1.75C12.4497 1.75 13.8675 2.18008 15.0735 2.98586C16.2794 3.79164 17.2194 4.93693 17.7744 6.2769C18.3295 7.61687 18.4747 9.09134 18.1918 10.5139C17.9089 11.9364 17.2105 13.243 16.1849 14.2686L12.2955 19.1581ZM8.55999 6.71048C9.20699 6.06348 10.0845 5.7 10.9995 5.7C11.9145 5.7 12.792 6.06348 13.439 6.71048C14.086 7.35748 14.4495 8.235 14.4495 9.15C14.4495 10.065 14.086 10.9425 13.439 11.5895C12.792 12.2365 11.9145 12.6 10.9995 12.6C10.0845 12.6 9.20699 12.2365 8.55999 11.5895C7.91299 10.9425 7.54951 10.065 7.54951 9.15C7.54951 8.235 7.91299 7.35748 8.55999 6.71048ZM10.9995 7.1C10.4558 7.1 9.93439 7.31598 9.54994 7.70043C9.16549 8.08488 8.94951 8.60631 8.94951 9.15C8.94951 9.69369 9.16549 10.2151 9.54994 10.5996C9.93439 10.984 10.4558 11.2 10.9995 11.2C11.5432 11.2 12.0646 10.984 12.4491 10.5996C12.8335 10.2151 13.0495 9.69369 13.0495 9.15C13.0495 8.60631 12.8335 8.08488 12.4491 7.70043C12.0646 7.31598 11.5432 7.1 10.9995 7.1Z" fill="#333333"/>
</g>
</svg>
