<svg width="24" height="24" viewBox="0 0 24 24" fill="none" xmlns="http://www.w3.org/2000/svg">
<path fill-rule="evenodd" clip-rule="evenodd" d="M16.0893 14.3971C16.1223 14.3557 16.1575 14.3162 16.195 14.2787C17.0247 13.4489 17.5898 12.3917 17.8187 11.2408C18.0476 10.0898 17.9301 8.89683 17.481 7.81267C17.0319 6.72852 16.2714 5.80188 15.2957 5.14993C14.32 4.49798 13.1728 4.15 11.9994 4.15C10.8259 4.15 9.67873 4.49798 8.703 5.14993C7.72728 5.80188 6.96679 6.72852 6.5177 7.81267C6.06861 8.89683 5.95109 10.0898 6.18 11.2408C6.40892 12.3917 6.97398 13.4489 7.80374 14.2787C7.84113 14.3161 7.87638 14.3556 7.9093 14.397L11.7327 19.2023C11.8085 19.2616 11.9025 19.2944 11.9998 19.2944C12.0971 19.2944 12.191 19.2617 12.2669 19.2023L16.0893 14.3971ZM13.2955 20.1581C12.9518 20.5015 12.4857 20.6944 11.9998 20.6944C11.5139 20.6944 11.0479 20.5015 10.7041 20.1581L6.81377 15.2686C5.78822 14.243 5.08983 12.9364 4.8069 11.5139C4.52397 10.0913 4.66922 8.61687 5.22427 7.2769C5.77933 5.93693 6.71926 4.79164 7.92521 3.98586C9.13116 3.18008 10.549 2.75 11.9994 2.75C13.4497 2.75 14.8675 3.18008 16.0735 3.98586C17.2794 4.79164 18.2194 5.93693 18.7744 7.2769C19.3295 8.61687 19.4747 10.0913 19.1918 11.5139C18.9089 12.9364 18.2105 14.243 17.1849 15.2686L13.2955 20.1581ZM9.55999 7.71048C10.207 7.06348 11.0845 6.7 11.9995 6.7C12.9145 6.7 13.792 7.06348 14.439 7.71048C15.086 8.35748 15.4495 9.235 15.4495 10.15C15.4495 11.065 15.086 11.9425 14.439 12.5895C13.792 13.2365 12.9145 13.6 11.9995 13.6C11.0845 13.6 10.207 13.2365 9.55999 12.5895C8.91299 11.9425 8.54951 11.065 8.54951 10.15C8.54951 9.235 8.91299 8.35748 9.55999 7.71048ZM11.9995 8.1C11.4558 8.1 10.9344 8.31598 10.5499 8.70043C10.1655 9.08488 9.94951 9.60631 9.94951 10.15C9.94951 10.6937 10.1655 11.2151 10.5499 11.5996C10.9344 11.984 11.4558 12.2 11.9995 12.2C12.5432 12.2 13.0646 11.984 13.4491 11.5996C13.8335 11.2151 14.0495 10.6937 14.0495 10.15C14.0495 9.60631 13.8335 9.08488 13.4491 8.70043C13.0646 8.31598 12.5432 8.1 11.9995 8.1Z" fill="#333333"/>
</svg>
