<svg width="20" height="20" viewBox="0 0 20 20" fill="none" xmlns="http://www.w3.org/2000/svg">
<path d="M12.9336 5.98467L7.54041 11.3778C7.28735 11.6309 7.13303 11.962 7.11142 12.2983C7.08981 12.6345 7.20267 12.9485 7.42517 13.171C7.64767 13.3935 7.96159 13.5063 8.29786 13.4847C8.63414 13.4631 8.96522 13.3088 9.21829 13.0557L14.6115 7.66255C15.1176 7.15642 15.4262 6.49425 15.4694 5.8217C15.5127 5.14915 15.2869 4.52132 14.8419 4.07631C14.3969 3.63131 13.7691 3.4056 13.0966 3.44882C12.424 3.49204 11.7618 3.80066 11.2557 4.30679L5.86253 9.69997C5.10334 10.4592 4.64041 11.4524 4.57558 12.4612C4.51074 13.4701 4.84931 14.4118 5.51682 15.0793C6.18432 15.7468 7.12607 16.0854 8.13489 16.0206C9.14371 15.9557 10.137 15.4928 10.8962 14.7336L16.2893 9.34042" stroke="#1A83FF" stroke-width="1.19076" stroke-linecap="round" stroke-linejoin="round"/>
</svg>
