<svg width="24" height="24" viewBox="0 0 24 24" fill="none" xmlns="http://www.w3.org/2000/svg">
<path fill-rule="evenodd" clip-rule="evenodd" d="M16.375 10.2109C16.375 13.5246 13.6887 16.2109 10.375 16.2109C7.06129 16.2109 4.375 13.5246 4.375 10.2109C4.375 6.89723 7.06129 4.21094 10.375 4.21094C13.6887 4.21094 16.375 6.89723 16.375 10.2109ZM14.9712 16.7597C13.6707 17.6741 12.0855 18.2109 10.375 18.2109C5.95672 18.2109 2.375 14.6292 2.375 10.2109C2.375 5.79266 5.95672 2.21094 10.375 2.21094C14.7933 2.21094 18.375 5.79266 18.375 10.2109C18.375 12.1969 17.6514 14.0138 16.4534 15.4124L21.6187 20.4065L20.1809 21.7966L14.9712 16.7597Z" fill="#262626"/>
</svg>
